<svg id="b7169edc-39a6-4340-8829-73f3b1659f13" data-name="Capa 1" xmlns="http://www.w3.org/2000/svg" viewBox="0 0 403.98 378.88"><defs><style>.bce1f2e7-b15e-47f4-b35d-d153b962e05d{fill:#fbd10d;}</style></defs><path class="bce1f2e7-b15e-47f4-b35d-d153b962e05d" d="M196.23,125.84a4.32,4.32,0,0,0,3.87,6.64,22.7,22.7,0,0,1,13.4,4.08,4.32,4.32,0,0,0,6.92-3.34c.38-7.18-2.94-13.47-8.59-15.19S199.91,119.67,196.23,125.84Z" transform="translate(-123.1 -51.04)"/><path class="bce1f2e7-b15e-47f4-b35d-d153b962e05d" d="M433.51,138.71a22.74,22.74,0,0,1,6.94-1.44,22.4,22.4,0,0,1,7.05.77,4.32,4.32,0,0,0,5.38-5.49c-2.06-6.88-7.3-11.68-13.21-11.39s-10.66,5.56-12.05,12.61A4.32,4.32,0,0,0,433.51,138.71Z" transform="translate(-123.1 -51.04)"/><path class="bce1f2e7-b15e-47f4-b35d-d153b962e05d" d="M521.92,414.27a32.6,32.6,0,0,0,5.16-17.6c0-17.55-13.66-33.43-37.72-35a7.08,7.08,0,0,0-1-.2c-32.17-33-46.92-112.9-38.17-160.91C479.42,198.23,500,181,507.7,151.68c3.4-13-2.63-23-15.11-25.36-6.12-1.16-10.19-4.8-12.43-11.1-.08-.2-.15-.4-.24-.59C468.11,88.45,447.67,85.21,434.12,84c0-.05.05-.16,0-.15-4.9.28-11,.26-7.73-3.34,8.65-9.59,10.17-14.13,11.17-17.62,2.2-7.7-6-12.74-12.11-11.73-33.65,5.56-66.64,35.62-84.08,76.37-2.27,5.33-6.15,14.46-11,26.19-6.16-14.78-18.69-50.4-54.8-69.16C259.67,76.31,244,73.71,227.7,74.73c-13.64.83-42,2.55-57.27,36.81-.47.47-4.19,3.62-20.28,5.34a181.76,181.76,0,0,1-19.12,1h-.09a7.83,7.83,0,0,0-7.83,7.73c-.57,44.4,19.45,63.74,34.46,72l.06,0c9,5.44,20.46,6.72,31.05,6.72,5.75,0,11-.37,14.88-.76,2.94,18.56,8.41,93.64-28.76,158.08-23.86,1.77-37.3,17.65-37.3,35a32.6,32.6,0,0,0,5.16,17.6s8.43,15.65,34.19,15.65h84.08a7.83,7.83,0,0,0,0-15.65H174.26c-14.58,0-21.11-8.84-21.11-17.6,0-11.15,9.74-19,24.72-19.49,6.86,1.52,15.18,5.42,18.6,15.16a7.82,7.82,0,0,0,14.76-5.18,37.43,37.43,0,0,0-20.42-22.09c34.84-63.62,32.2-136.94,28.41-162a69.19,69.19,0,0,0-2.89-11.26,7.8,7.8,0,0,0-8.4-4.52c-6.8,1.11-25.32,3.06-38.14-1.24-.37-.12-.73-.26-1.08-.39-14-6.11-23.3-18.12-27.45-35.26,5.08-1.15,12.44-5.29,17.22-18.81,14.77-2.34,23.15-6.67,26.17-13.49,7.22-16.28,17.5-22.9,28.87-25.73,5.87-1.46,21-3.51,33.9,5.11a22.15,22.15,0,0,1,8.24,11.4c2.91,8.43.81,17.84-5.93,26.5-17.45,22.46-21.85,33.92-20.24,48.82a27.61,27.61,0,0,0,14.42,21.69c11.37,6.31,26.27,6.52,37.64-.5,12.24-7.56,19.34-21,22.78-43.69a.5.5,0,0,1,0-.12c-3-7.61-7.69-18.06-13.48-25.35.45,6.32,1.36,14.29-.5,22.72-3.74,16.94-6.11,25.43-15.63,32.35-7.37,5.35-17.1,4.31-23.24.9a12,12,0,0,1-6.45-9.68c-.87-8.06,0-15.64,17-37.54,10.72-13.79,14.12-31.29,6-46.72a50,50,0,0,1,6.35,3.86h0s10.91,6.91,22.33,21.62C300,128,311.64,143.27,322,174.31c-23.67,58.76-58.27,151.1-58.27,188.61a67,67,0,1,0,134,0c0-20.31-12.1-63.62-36-128.73-5.46-14.88-11-29.42-16.18-42.68l-7.95,22.62c20.9,54.81,44.44,123.23,44.44,148.79a51.35,51.35,0,1,1-102.7,0c0-39.65,44.5-151.47,59.48-188.44,0,0,0,0,0,0,8.35-20.62,14.82-35.86,16.92-40.77,11.1-25.93,33.53-53.95,60.85-64C396.19,89.23,403.5,99.47,411,99.47H431.2c12.58,1,25.71,2.45,34.33,21.32,3.39,9.25,9.73,15.89,18.19,19.2-1.83,4.59-3.24,12.47,5.85,16.58-6.88,16.25-22,31.39-54.64,28.13a7.82,7.82,0,0,0-1.56,15.57l.94.08c-4,25-2.57,57.63,4.09,88.77,6.92,32.37,18.62,59.29,33.44,77.32a37.15,37.15,0,0,0-17.68,20.72,7.82,7.82,0,1,0,14.76,5.18c3.4-9.69,11.65-13.59,18.5-15.13,32.34,1.51,30.95,37.06,2.9,37.06H400.58a7.83,7.83,0,0,0,0,15.65h89.74C515.07,429.92,521.92,414.27,521.92,414.27Z" transform="translate(-123.1 -51.04)"/></svg>
