<svg id="e27c651a-9b94-4ef4-9523-b7fa303320b2" data-name="Ñëîé 1" xmlns="http://www.w3.org/2000/svg" viewBox="0 0 2061.27 2535.65"><defs><style>.aaaa64f2-130a-4f1b-ac1e-ca07d1df9d97{fill:#ff5640;}.b2523b07-9531-411b-a77a-0b1d58522aae{fill:#ffac26;}.b79ec945-2e91-4f6d-8276-7440c94d6609{fill:#ff6d12;}.b10012e0-6497-43e3-8b52-4de383e30ac2{fill:#332321;}.a6255f01-c357-4c05-baf6-bd6ae70e3910{fill:#fff;}.b10dd0c0-d688-42b7-9331-a7b0e0ff8a95{fill:#ffd026;}.f3ff7f0b-db57-48f3-bf1d-06aae66050bf{fill:#cf3434;}.a22b2f93-cc66-4671-9d96-c4723f89df6d{fill:#a34d3e;}.b7ee907a-2e46-4f23-8b6f-7538841854d2{fill:#ffc117;}.ad9d60e1-e510-468c-8cb8-d5526a5d08dc{fill:#e66c57;}.af111e88-4f47-49dd-8d4e-6df44f06f20b{fill:#9cd9ff;}.a13acc02-0ba0-4ab5-a192-4409e7318b5b{fill:#ffb5a6;}.b997824d-fda7-4524-94d1-5d32a1d3680a{fill:#63ffbc;}.e2762891-0b8c-486c-8ec7-d467c2ce478c{fill:#3d9e74;}.be31a642-7c98-443b-90f3-8c1dfcd2f4cf{fill:#e3713d;}.e5ddab3d-4595-4357-82b6-f286eb4551be{fill:#cf6637;}.fc5f7407-2340-4b14-a880-8492cbd6cf89{fill:#b55a30;}.a38b0c72-8f8d-4f19-bb18-d22d925a62ef{fill:#964b28;}</style></defs><path class="aaaa64f2-130a-4f1b-ac1e-ca07d1df9d97" d="M1763.25,2899.06s24.23,235.85-8.08,253.62S1613,3256.07,1646.94,3265.76s340.85,0,340.85,0,21-4.85,8.08-24.23-143.77-79.16-145.39-106.62-11.31-187.39-8.08-214.85S1763.25,2899.06,1763.25,2899.06Z" transform="translate(-972.66 -734.41)"/><path class="aaaa64f2-130a-4f1b-ac1e-ca07d1df9d97" d="M2549.37,2899.06s-24.23,235.85,8.08,253.62,142.16,103.39,108.23,113.08-340.85,0-340.85,0-21-4.85-8.07-24.23,143.77-79.16,145.38-106.62,11.31-187.39,8.08-214.85S2549.37,2899.06,2549.37,2899.06Z" transform="translate(-972.66 -734.41)"/><path class="b2523b07-9531-411b-a77a-0b1d58522aae" d="M1225.76,1476.89S1054.53,2665.5,1397,2843.19s1237.53,219.7,1390.92-96.92,43.28-736.95,9.49-731.94-45.53,77.25-45.53,77.25-55.86-54.47-68.9-34.27-12.14,65.68-12.14,65.68-336.91-17.56-353.06-385.3-174.47-472.35-184.16-483S1266.16,995.54,1225.76,1476.89Z" transform="translate(-972.66 -734.41)"/><path class="b79ec945-2e91-4f6d-8276-7440c94d6609" d="M2456.8,2571.78c-53.31-316.82-287.65-383.59-287.65-383.59s-618.59,380.72-812.43-2.41,134.19-867.58,256.63-890.28c82.58-15.31-77.76-58.08-198.5-73.56-103.95,41.38-180.29,119-191.67,254.72,0,0-171.23,1188.61,171.23,1366.3s1237.52,219.7,1390.92-96.92c3.78-7.82,7.28-15.74,10.76-23.67C2660.81,2740.25,2487.25,2752.74,2456.8,2571.78Z" transform="translate(-972.66 -734.41)"/><path class="b10012e0-6497-43e3-8b52-4de383e30ac2" d="M1712,1489.5s242.3-4.85,247.15,0,15.35,101.77-21,103.38-112.27,21-119.54,0-10.5-79.15-10.5-79.15S1660.3,1511.3,1712,1489.5Z" transform="translate(-972.66 -734.41)"/><path class="b10012e0-6497-43e3-8b52-4de383e30ac2" d="M2051.9,1480.58s209.61-4.17,213.8,0,13.28,87.5-18.16,88.89-97.12,18.06-103.41,0-9.08-68.06-9.08-68.06S2007.19,1499.33,2051.9,1480.58Z" transform="translate(-972.66 -734.41)"/><path class="a6255f01-c357-4c05-baf6-bd6ae70e3910" d="M1913.92,1477s-4.85,45.63,8.48,46.44,31.9,4.44,32.71-6.06,1.62-36.75-2.42-40.38S1914.4,1470.92,1913.92,1477Z" transform="translate(-972.66 -734.41)"/><path class="a6255f01-c357-4c05-baf6-bd6ae70e3910" d="M2225.92,1469.14s-3.84,37.74,6.71,38.41,25.27,3.68,25.91-5,1.28-30.4-1.92-33.4S2226.29,1464.13,2225.92,1469.14Z" transform="translate(-972.66 -734.41)"/><path class="b10012e0-6497-43e3-8b52-4de383e30ac2" d="M1856.84,2428.48s187.3,56.16,229.31,191.71,438,268.84,446.89,152.9-126.36-252-371-332.81c-106.27-29.57-141.8-110-156-133.08S1856.84,2428.48,1856.84,2428.48Z" transform="translate(-972.66 -734.41)"/><path class="b2523b07-9531-411b-a77a-0b1d58522aae" d="M2143.3,2206.73S2003.37,2434,1934.42,2453.35s-196.76,144.3-117.78,211.07,195.28,43.08,195.28,43.08-112.34,88.31-47.56,157.23,260.87-58.15,260.87-58.15-47.46,88.36,71,78.64S2589.9,2628.89,2591.68,2470,2268.23,1968.73,2143.3,2206.73Z" transform="translate(-972.66 -734.41)"/><path class="b10dd0c0-d688-42b7-9331-a7b0e0ff8a95" d="M2797.4,2014.32c-33.78,5-45.52,77.26-45.52,77.26S2696,2037.11,2683,2057.3s-12.14,65.69-12.14,65.69-336.91-17.57-353.06-385.3c-7.67-174.47-47.33-289.63-87.93-363.72.06.3,98.69,436.52,70.7,666.37s-310.16,386-275.7,465.18,200.39-11.26,200.39-11.26-69.47,148.62,16.92,144.31,175.46-109.85,175.46-109.85S2391,2649.34,2490.08,2630s163.69-226.16,168-288.62c4-58.16,120-162.82,209,38.54C2870.35,2177.32,2818.72,2011.16,2797.4,2014.32Z" transform="translate(-972.66 -734.41)"/><path class="aaaa64f2-130a-4f1b-ac1e-ca07d1df9d97" d="M2408.66,1762.82c-6.61,1.79-443.83,139-516-56.31-55.67-150.67,470.3-126.88,521.17-96.86C2475.71,1646.18,2462.56,1748.2,2408.66,1762.82Z" transform="translate(-972.66 -734.41)"/><path class="a6255f01-c357-4c05-baf6-bd6ae70e3910" d="M2264.34,1619.43s145-20.45,153,8.87S2215.42,1645.81,2264.34,1619.43Z" transform="translate(-972.66 -734.41)"/><path class="f3ff7f0b-db57-48f3-bf1d-06aae66050bf" d="M2428.42,1721.31s-92.07,11.33-62.19,28.26S2443.77,1731,2428.42,1721.31Z" transform="translate(-972.66 -734.41)"/><path class="a22b2f93-cc66-4671-9d96-c4723f89df6d" d="M2390.12,1753.71s114-14.37,126.88,33-24.77,199.23,73.23,220.77,186.31-7.54,197.08-91.54,16.15-160.06,0-161.88-149.7-18.1-158.31-2.42-9.69,130.39-12.92,128-14-114.5-44.16-141.93-163.85-13.25-163.85-13.25S2374.17,1733.61,2390.12,1753.71Z" transform="translate(-972.66 -734.41)"/><path class="b7ee907a-2e46-4f23-8b6f-7538841854d2" d="M2623.06,1786l174.23,21.76c.43-13.56.23-25.21-.78-34.2-40.05-7.13-133.13-12.44-170-14.32A254.16,254.16,0,0,0,2623.06,1786Z" transform="translate(-972.66 -734.41)"/><path class="b10012e0-6497-43e3-8b52-4de383e30ac2" d="M2408.07,1724.42s-33.9,9.18-18,29.28c0,0,67-8.36,104.05,9.13,4.43-17,23.71-30.89,38.75-38.87C2482.6,1716.54,2408.07,1724.42,2408.07,1724.42Z" transform="translate(-972.66 -734.41)"/><path class="ad9d60e1-e510-468c-8cb8-d5526a5d08dc" d="M2691.46,1830.88s-28.47,143.9,18.82,145.39,71.64-147.54,70.57-150.77S2696.59,1797.74,2691.46,1830.88Z" transform="translate(-972.66 -734.41)"/><path class="a6255f01-c357-4c05-baf6-bd6ae70e3910" d="M2723.28,1770.71c2.12-2.43,59.72,1.88,59.72,12.79S2706,1790.64,2723.28,1770.71Z" transform="translate(-972.66 -734.41)"/><path class="ad9d60e1-e510-468c-8cb8-d5526a5d08dc" d="M2710.28,1752s71.56,2,76.35,7.27C2801.58,1775.82,2680,1761.69,2710.28,1752Z" transform="translate(-972.66 -734.41)"/><path class="af111e88-4f47-49dd-8d4e-6df44f06f20b" d="M2792.85,1542.43c-13.69-21.37-107-44.91-151.47-38.83,0,0-121.31,6.28-92.77,54.86s142.66,65.87,191.74,39.09S2806.55,1563.8,2792.85,1542.43Zm-69.62,18.27c-21.68.68-75.33,4.7-71.28-12.27s53-13.26,53-13.26C2730,1534.91,2744.92,1560,2723.23,1560.7Z" transform="translate(-972.66 -734.41)"/><path class="af111e88-4f47-49dd-8d4e-6df44f06f20b" d="M3028,1398.8c-17.77-23.51-138.92-49.41-196.57-42.73,0,0-157.43,6.91-120.4,60.36s185.15,72.47,248.84,43S3045.8,1422.31,3028,1398.8Zm-90.35,20.1c-28.14.74-97.76,5.17-92.5-13.5s68.8-14.59,68.8-14.59C2946.4,1390.52,2965.81,1418.15,2937.67,1418.9Z" transform="translate(-972.66 -734.41)"/><path class="af111e88-4f47-49dd-8d4e-6df44f06f20b" d="M3004.65,1190.66c-23.25-31.1-181.73-65.37-257.15-56.52,0,0-205.94,9.14-157.5,79.86s242.21,95.87,325.52,56.89S3027.91,1221.77,3004.65,1190.66Zm-118.19,26.6c-36.82,1-127.88,6.83-121-17.87s90-19.3,90-19.3C2897.87,1179.71,2923.27,1216.27,2886.46,1217.26Z" transform="translate(-972.66 -734.41)"/><path class="ad9d60e1-e510-468c-8cb8-d5526a5d08dc" d="M2102.72,2156l-.33-.11a248.29,248.29,0,0,0,6.45-54.65c0-172.14-177-311.69-395.37-311.69-193.35,0-354,109.49-388.34,254.06h-.25l-22.83,91.18,16.72-23.15c7,167.29,180.8,301.29,394.7,301.29,166.57,0,308.8-81.31,367-196.24v32.27l20.26-84.74c0-.16.07-.32.11-.48Z" transform="translate(-972.66 -734.41)"/><path class="a13acc02-0ba0-4ab5-a192-4409e7318b5b" d="M2017.14,1901.6l-28.91,81.4,51.69,57.34,35.36-65S2056.93,1934.11,2017.14,1901.6Z" transform="translate(-972.66 -734.41)"/><path class="a13acc02-0ba0-4ab5-a192-4409e7318b5b" d="M1784.65,1794.56l-19.3,88.77s93.65,64.94,127.57,39.9,33.79-84.54,33.79-84.54S1855.82,1799.62,1784.65,1794.56Z" transform="translate(-972.66 -734.41)"/><ellipse class="a22b2f93-cc66-4671-9d96-c4723f89df6d" cx="723.18" cy="1440.01" rx="397.39" ry="295.62"/><ellipse class="b997824d-fda7-4524-94d1-5d32a1d3680a" cx="729.11" cy="1436.78" rx="323.08" ry="241.23"/><ellipse class="a6255f01-c357-4c05-baf6-bd6ae70e3910" cx="838.35" cy="1322.89" rx="123.41" ry="91.27"/><path class="a6255f01-c357-4c05-baf6-bd6ae70e3910" d="M1873.53,2252.77c0,25.43-26.76,46-59.76,46s-59.77-20.61-59.77-46,26.76-46,59.77-46S1873.53,2227.34,1873.53,2252.77Z" transform="translate(-972.66 -734.41)"/><path class="e2762891-0b8c-486c-8ec7-d467c2ce478c" d="M1489.07,2079.11s-122.77,100.16-51.69,185.77,213.69,164.73,357,117.93c0,0,50.08-25.85,0-48.46s-264.92-80.77-242.31-127.62S1550.46,2038.73,1489.07,2079.11Z" transform="translate(-972.66 -734.41)"/><path class="be31a642-7c98-443b-90f3-8c1dfcd2f4cf" d="M1189.15,1398s-163.7,204.21-99.08,247.49S1262.38,1370,1378.69,1339.8s785.68,101.23,863.46,0-145.55-215.38-199.74-224,137.51,8.62,98.74-146.46-456.62-269.23-751.69-99.08c0,0-73.24-21.54-133.54,21.54s-364,286.46-262.77,411.39S1189.15,1398,1189.15,1398Z" transform="translate(-972.66 -734.41)"/><path class="e5ddab3d-4595-4357-82b6-f286eb4551be" d="M1691.08,1354.17,1213.84,924.12c-10.9,8.82-23,18.91-35.84,30l444.25,393.48C1644.55,1349.7,1667.57,1351.91,1691.08,1354.17Z" transform="translate(-972.66 -734.41)"/><path class="e5ddab3d-4595-4357-82b6-f286eb4551be" d="M2032.63,1378.68,1439.88,844.54q-21.37,9.69-42.07,21.18l577.05,511.11C1994.69,1377.73,2014.05,1378.39,2032.63,1378.68Z" transform="translate(-972.66 -734.41)"/><path class="e5ddab3d-4595-4357-82b6-f286eb4551be" d="M2150.27,1374a313.58,313.58,0,0,0,43.91-8.23L1568.83,802.22c-16.64,3.6-33.16,7.94-49.59,12.83Z" transform="translate(-972.66 -734.41)"/><path class="e5ddab3d-4595-4357-82b6-f286eb4551be" d="M1258.37,890.17l534.69,473.58c21.75,2,43.53,3.84,65.16,5.56L1304,869.9A141.82,141.82,0,0,0,1258.37,890.17Z" transform="translate(-972.66 -734.41)"/><path class="e5ddab3d-4595-4357-82b6-f286eb4551be" d="M1776.63,787.47l333.74,295.6a89.26,89.26,0,0,0,24.55-28.08L1847.1,795.63C1824.22,791.91,1800.71,789.08,1776.63,787.47Z" transform="translate(-972.66 -734.41)"/><path class="e5ddab3d-4595-4357-82b6-f286eb4551be" d="M2245.52,1334.57c7.95-12,11.89-24.11,12.46-36.21l-197-177.55a126.15,126.15,0,0,0-18.74-4.93c-16.71-2.65-10-2.88,6.14-6.43L1690,786.58q-28.69,1.3-57.67,4.91Z" transform="translate(-972.66 -734.41)"/><path class="e5ddab3d-4595-4357-82b6-f286eb4551be" d="M1148,1400.44l-175.31-158c-.35,22.09,5.61,42.72,20.26,60.81C1053.16,1377.59,1110.92,1396.89,1148,1400.44Z" transform="translate(-972.66 -734.41)"/><path class="e5ddab3d-4595-4357-82b6-f286eb4551be" d="M1239,1482.47l-67.84-61.12c-7.25,9.8-16.07,22.13-25.54,36.1l69.77,61.8C1223.13,1507.1,1231,1494.75,1239,1482.47Z" transform="translate(-972.66 -734.41)"/><path class="e5ddab3d-4595-4357-82b6-f286eb4551be" d="M1460.75,1335.83c20.38.67,43.16,2,68,3.83L1139.45,988.88c-11.14,10.41-22.4,21.29-33.59,32.61Z" transform="translate(-972.66 -734.41)"/><path class="e5ddab3d-4595-4357-82b6-f286eb4551be" d="M1167.86,1591.74c7.83-11,15.91-23.14,24.2-36l-69.43-62.57c-7.78,12.77-15.24,25.88-22,39Z" transform="translate(-972.66 -734.41)"/><path class="e5ddab3d-4595-4357-82b6-f286eb4551be" d="M1265.67,1443.12c8.64-12.2,17.41-23.94,26.3-34.87l-288.06-259.58a282,282,0,0,0-21.17,43.86Z" transform="translate(-972.66 -734.41)"/><path class="e5ddab3d-4595-4357-82b6-f286eb4551be" d="M1339.73,1360.15c12.78-9.72,25.7-16.88,38.74-20.27.82-.21,1.94-.33,2.8-.53l-310.79-280.06c-10.43,11.76-20.5,23.74-29.94,35.86Z" transform="translate(-972.66 -734.41)"/><path class="fc5f7407-2340-4b14-a880-8492cbd6cf89" d="M2144.64,988.86l-72.36,114C2108.46,1090.56,2154.5,1061.58,2144.64,988.86Z" transform="translate(-972.66 -734.41)"/><path class="fc5f7407-2340-4b14-a880-8492cbd6cf89" d="M1829.7,792.82c-13.46-1.86-27.18-3.3-41-4.44l-347.11,546.9c14.82.16,31.28.78,49.24,1.78Z" transform="translate(-972.66 -734.41)"/><path class="fc5f7407-2340-4b14-a880-8492cbd6cf89" d="M1408.8,859.87c-6.44,3.39-12.9,6.73-19.23,10.38a163.64,163.64,0,0,0-29.25-4.75L1048,1357.56a237.91,237.91,0,0,0,36.32,23.32Z" transform="translate(-972.66 -734.41)"/><path class="fc5f7407-2340-4b14-a880-8492cbd6cf89" d="M1256,891.79c-11.67,8.34-32.49,24.22-57.67,45.24L980.07,1281a90.76,90.76,0,0,0,13.19,22.22c4.54,5.61,9,10.55,13.56,15.56l274.79-441.25A136.61,136.61,0,0,0,1256,891.79Z" transform="translate(-972.66 -734.41)"/><path class="fc5f7407-2340-4b14-a880-8492cbd6cf89" d="M1658.48,788.6,1113.67,1647c59.53-24.26,144.49-235.54,236.88-294.26L1703.41,786.1C1688.5,786.52,1673.52,787.27,1658.48,788.6Z" transform="translate(-972.66 -734.41)"/><path class="fc5f7407-2340-4b14-a880-8492cbd6cf89" d="M1497.94,821.77,1132.25,1398c23,4.63,40.42,3.18,49.62,1.59l369.4-593.19Q1524.39,812.95,1497.94,821.77Z" transform="translate(-972.66 -734.41)"/><path class="fc5f7407-2340-4b14-a880-8492cbd6cf89" d="M1144.83,1459c-10.91,16.16-22.3,34.14-32.81,52.68Z" transform="translate(-972.66 -734.41)"/><path class="fc5f7407-2340-4b14-a880-8492cbd6cf89" d="M2098.12,1135.68a349.72,349.72,0,0,0-37.12-15l-159.8,251.78q24.16,1.69,47.64,3Z" transform="translate(-972.66 -734.41)"/><path class="fc5f7407-2340-4b14-a880-8492cbd6cf89" d="M2176.16,1181.22c-10.66-7.66-21.68-14.83-32.72-21.43L2005,1377.9q24.87.78,48.15.82Z" transform="translate(-972.66 -734.41)"/><path class="fc5f7407-2340-4b14-a880-8492cbd6cf89" d="M1934.82,815.44c-12.23-3.68-24.84-7-37.75-10.07l-340.41,536.35c15.38,1.26,31.4,2.67,47.83,4.16Z" transform="translate(-972.66 -734.41)"/><path class="fc5f7407-2340-4b14-a880-8492cbd6cf89" d="M2239.38,1242a203.5,203.5,0,0,0-26.8-30.85L2107,1377.5c18.37-.93,35.38-2.43,50.85-4.59Z" transform="translate(-972.66 -734.41)"/><path class="fc5f7407-2340-4b14-a880-8492cbd6cf89" d="M2027.49,852.48c-10.8-5.65-22.25-11-34.18-16.05l-327,515.25,47.48,4.55Z" transform="translate(-972.66 -734.41)"/><path class="fc5f7407-2340-4b14-a880-8492cbd6cf89" d="M2107.18,910.75A233.67,233.67,0,0,0,2079,885.2l-302.68,476.91q23.57,2.16,47.17,4.21Z" transform="translate(-972.66 -734.41)"/><path class="a38b0c72-8f8d-4f19-bb18-d22d925a62ef" d="M1389.46,870.26s77.78,40.35,73.23,118.6-53.85,195.19-10.77,228.7,596.42-108.11,596.42-108.11-568.42,136.7-549,39.22S1533,891.66,1389.46,870.26Z" transform="translate(-972.66 -734.41)"/><path class="a38b0c72-8f8d-4f19-bb18-d22d925a62ef" d="M1382.49,868.6s51-119,26.31-133-46.27,95.84-46.27,95.84-73.23-87.23-90.46-50.61S1382.49,868.6,1382.49,868.6Z" transform="translate(-972.66 -734.41)"/></svg>